<?xml version="1.0" encoding="UTF-8" standalone="no"?>
<!-- Creator: CorelDRAW -->

<svg
   xml:space="preserve"
   width="50.000004"
   height="50.000004"
   version="1.1"
   style="clip-rule:evenodd;fill-rule:evenodd;image-rendering:optimizeQuality;shape-rendering:geometricPrecision;text-rendering:geometricPrecision"
   viewBox="0 0 2.2273441 2.2289475"
   id="svg50"
   sodipodi:docname="logo2.svg"
   inkscape:version="1.4 (86a8ad7, 2024-10-11)"
   xmlns:inkscape="http://www.inkscape.org/namespaces/inkscape"
   xmlns:sodipodi="http://sodipodi.sourceforge.net/DTD/sodipodi-0.dtd"
   xmlns="http://www.w3.org/2000/svg"
   xmlns:svg="http://www.w3.org/2000/svg"><sodipodi:namedview
   id="namedview50"
   pagecolor="#ffffff"
   bordercolor="#000000"
   borderopacity="0.25"
   inkscape:showpageshadow="2"
   inkscape:pageopacity="0.0"
   inkscape:pagecheckerboard="0"
   inkscape:deskcolor="#d1d1d1"
   inkscape:zoom="0.97945338"
   inkscape:cx="350.70582"
   inkscape:cy="129.15367"
   inkscape:window-width="1920"
   inkscape:window-height="991"
   inkscape:window-x="2391"
   inkscape:window-y="-9"
   inkscape:window-maximized="1"
   inkscape:current-layer="Capa_x0020_1" />
 <defs
   id="defs1">
  <style
   type="text/css"
   id="style1">
   <![CDATA[
    .str0 {stroke:#FEFEFE;stroke-width:0.05;stroke-miterlimit:10}
    .fil0 {fill:#FEFEFE;fill-rule:nonzero}
   ]]>
  </style>
 </defs>
 <g
   id="Capa_x0020_1"
   inkscape:label="Capa 1"
   inkscape:groupmode="layer"
   transform="translate(-0.01669816,-0.00499999)">
  <metadata
   id="CorelCorpID_0Corel-Layer" />
  <g
   id="_2012689112864">
   <g
   id="g36"
   transform="matrix(0.26346896,0,0,0.26346896,0.00368265,0.00368265)">
    <path
   class="fil0 str0"
   d="m 2.99,2.67 c 0,0 -0.01,0 -0.01,0 C 2.7,2.68 2.57,2.74 2.46,2.8 2.4,2.83 2.34,2.86 2.26,2.87 c -0.1,0.02 -0.34,0 -0.35,0 L 1.84,2.86 1.88,2.92 c 0.01,0.01 0.24,0.38 0.51,0.46 0.11,0.03 0.2,0.04 0.26,0.05 0.08,0.01 0.13,0.01 0.17,0.04 0.03,0.02 0.07,0.07 0.12,0.12 0.08,0.1 0.17,0.23 0.3,0.26 0.05,0.02 0.12,0.02 0.18,0.02 0.03,0 0.05,0 0.08,0 C 3.49,3.85 3.49,3.82 3.5,3.8 3.42,3.8 3.33,3.8 3.25,3.78 3.15,3.76 3.06,3.64 2.99,3.55 2.94,3.49 2.9,3.44 2.86,3.41 2.8,3.37 2.74,3.37 2.66,3.36 2.59,3.35 2.51,3.35 2.41,3.32 2.23,3.26 2.06,3.05 1.98,2.94 2.06,2.95 2.2,2.96 2.28,2.94 2.36,2.92 2.42,2.89 2.49,2.86 2.6,2.8 2.72,2.75 2.98,2.74 c 0,0 0.01,0 0.01,0 0.32,0 0.67,0.44 0.8,0.61 0.01,-0.01 0.03,-0.01 0.05,-0.01 0.01,0 0.02,0 0.03,0 C 3.76,3.2 3.37,2.67 2.99,2.67 Z"
   id="path1" />
    <path
   class="fil0 str0"
   d="m 2.99,2.67 c 0,0 -0.01,0 -0.01,0 C 2.7,2.68 2.57,2.74 2.46,2.8 2.4,2.83 2.34,2.86 2.26,2.87 c -0.1,0.02 -0.34,0 -0.35,0 L 1.84,2.86 1.88,2.92 c 0.01,0.01 0.24,0.38 0.51,0.46 0.11,0.03 0.2,0.04 0.26,0.05 0.08,0.01 0.13,0.01 0.17,0.04 0.03,0.02 0.07,0.07 0.12,0.12 0.08,0.1 0.17,0.23 0.3,0.26 0.05,0.02 0.12,0.02 0.18,0.02 0.03,0 0.05,0 0.08,0 C 3.49,3.85 3.49,3.82 3.5,3.8 3.42,3.8 3.33,3.8 3.25,3.78 3.15,3.76 3.06,3.64 2.99,3.55 2.94,3.49 2.9,3.44 2.86,3.41 2.8,3.37 2.74,3.37 2.66,3.36 2.59,3.35 2.51,3.35 2.41,3.32 2.23,3.26 2.06,3.05 1.98,2.94 2.06,2.95 2.2,2.96 2.28,2.94 2.36,2.92 2.42,2.89 2.49,2.86 2.6,2.8 2.72,2.75 2.98,2.74 c 0,0 0.01,0 0.01,0 0.32,0 0.67,0.44 0.8,0.61 0.01,-0.01 0.03,-0.01 0.05,-0.01 0.01,0 0.02,0 0.03,0 C 3.76,3.2 3.37,2.67 2.99,2.67 Z"
   id="path2" />
    <path
   class="fil0 str0"
   d="M 3.61,3.59 C 3.54,3.57 3.47,3.53 3.41,3.49 3.26,3.38 3.2,3.18 3.06,3.06 2.91,2.97 2.73,2.99 2.59,3.06 2.73,3 2.91,3 3.04,3.09 3.09,3.13 3.12,3.19 3.16,3.25 3.21,3.33 3.25,3.41 3.31,3.47 3.39,3.56 3.5,3.62 3.61,3.66 3.6,3.64 3.6,3.61 3.61,3.59 Z"
   id="path3" />
    <path
   class="fil0 str0"
   d="M 3.61,3.59 C 3.54,3.57 3.47,3.53 3.41,3.49 3.26,3.38 3.2,3.18 3.06,3.06 2.91,2.97 2.73,2.99 2.59,3.06 2.73,3 2.91,3 3.04,3.09 3.09,3.13 3.12,3.19 3.16,3.25 3.21,3.33 3.25,3.41 3.31,3.47 3.39,3.56 3.5,3.62 3.61,3.66 3.6,3.64 3.6,3.61 3.61,3.59 Z"
   id="path4" />
    <path
   class="fil0 str0"
   d="M 5.86,3.05 5.83,2.97 5.8,3.05 C 5.72,3.24 5.5,3.37 5.42,3.41 5.32,3.46 5.24,3.46 5.14,3.45 5.09,3.45 5.03,3.44 4.96,3.45 4.82,3.46 4.71,3.5 4.63,3.53 4.64,3.55 4.65,3.57 4.66,3.6 4.73,3.56 4.84,3.53 4.96,3.52 c 0.07,-0.01 0.12,0 0.18,0 C 5.24,3.53 5.33,3.53 5.45,3.47 5.55,3.42 5.72,3.31 5.82,3.15 5.94,3.55 5.81,3.8 5.76,3.86 5.63,4.06 5.5,4.07 5.33,4.09 c -0.03,0 -0.07,0 -0.11,0 C 5.16,4.1 5.12,4.12 5.07,4.14 4.98,4.19 4.88,4.23 4.66,4.19 4.58,4.17 4.51,4.13 4.46,4.08 4.45,4.1 4.44,4.13 4.42,4.14 4.48,4.19 4.55,4.24 4.65,4.25 4.71,4.27 4.77,4.27 4.82,4.27 4.95,4.27 5.03,4.24 5.1,4.21 5.14,4.19 5.18,4.17 5.23,4.16 c 0.04,0 0.07,0 0.1,-0.01 C 5.51,4.14 5.67,4.13 5.82,3.9 5.87,3.82 6.03,3.53 5.86,3.05 Z"
   id="path5" />
    <path
   class="fil0 str0"
   d="M 5.86,3.05 5.83,2.97 5.8,3.05 C 5.72,3.24 5.5,3.37 5.42,3.41 5.32,3.46 5.24,3.46 5.14,3.45 5.09,3.45 5.03,3.44 4.96,3.45 4.82,3.46 4.71,3.5 4.63,3.53 4.64,3.55 4.65,3.57 4.66,3.6 4.73,3.56 4.84,3.53 4.96,3.52 c 0.07,-0.01 0.12,0 0.18,0 C 5.24,3.53 5.33,3.53 5.45,3.47 5.55,3.42 5.72,3.31 5.82,3.15 5.94,3.55 5.81,3.8 5.76,3.86 5.63,4.06 5.5,4.07 5.33,4.09 c -0.03,0 -0.07,0 -0.11,0 C 5.16,4.1 5.12,4.12 5.07,4.14 4.98,4.19 4.88,4.23 4.66,4.19 4.58,4.17 4.51,4.13 4.46,4.08 4.45,4.1 4.44,4.13 4.42,4.14 4.48,4.19 4.55,4.24 4.65,4.25 4.71,4.27 4.77,4.27 4.82,4.27 4.95,4.27 5.03,4.24 5.1,4.21 5.14,4.19 5.18,4.17 5.23,4.16 c 0.04,0 0.07,0 0.1,-0.01 C 5.51,4.14 5.67,4.13 5.82,3.9 5.87,3.82 6.03,3.53 5.86,3.05 Z"
   id="path6" />
    <path
   class="fil0 str0"
   d="M 5.07,3.81 C 4.99,3.8 4.9,3.81 4.83,3.84 4.77,3.86 4.56,3.93 4.48,3.89 4.49,3.91 4.49,3.93 4.49,3.96 4.6,3.98 4.77,3.91 4.85,3.88 4.92,3.85 4.99,3.83 5.06,3.84 5.14,3.85 5.21,3.87 5.29,3.87 5.4,3.87 5.49,3.8 5.56,3.73 5.4,3.89 5.26,3.86 5.07,3.81 Z"
   id="path7" />
    <path
   class="fil0 str0"
   d="M 5.07,3.81 C 4.99,3.8 4.9,3.81 4.83,3.84 4.77,3.86 4.56,3.93 4.48,3.89 4.49,3.91 4.49,3.93 4.49,3.96 4.6,3.98 4.77,3.91 4.85,3.88 4.92,3.85 4.99,3.83 5.06,3.84 5.14,3.85 5.21,3.87 5.29,3.87 5.4,3.87 5.49,3.8 5.56,3.73 5.4,3.89 5.26,3.86 5.07,3.81 Z"
   id="path8" />
    <path
   class="fil0 str0"
   d="M 4.12,3.2 C 4.13,3.13 4.14,3.07 4.15,3.01 4.18,2.85 4.31,2.67 4.4,2.56 4.38,2.54 4.37,2.51 4.37,2.49 4.27,2.61 4.12,2.81 4.08,3 4.07,3.06 4.06,3.14 4.05,3.22 4.07,3.21 4.1,3.2 4.12,3.2 Z"
   id="path9" />
    <path
   class="fil0 str0"
   d="M 4.12,3.2 C 4.13,3.13 4.14,3.07 4.15,3.01 4.18,2.85 4.31,2.67 4.4,2.56 4.38,2.54 4.37,2.51 4.37,2.49 4.27,2.61 4.12,2.81 4.08,3 4.07,3.06 4.06,3.14 4.05,3.22 4.07,3.21 4.1,3.2 4.12,3.2 Z"
   id="path10" />
    <path
   class="fil0 str0"
   d="m 4.08,4.44 c 0.02,0 0.03,0.01 0.03,0.02 0,-0.01 0,-0.08 -0.01,-0.18 C 4.08,4.3 4.06,4.3 4.03,4.29 c 0,0 0,0.01 0,0.02 C 4.04,4.49 4.04,4.5 4.07,4.5 L 4.11,4.48 4.08,4.47 Z"
   id="path11" />
    <path
   class="fil0 str0"
   d="m 4.08,4.44 c 0.02,0 0.03,0.01 0.03,0.02 0,-0.01 0,-0.08 -0.01,-0.18 C 4.08,4.3 4.06,4.3 4.03,4.29 c 0,0 0,0.01 0,0.02 C 4.04,4.49 4.04,4.5 4.07,4.5 L 4.11,4.48 4.08,4.47 Z"
   id="path12" />
    <polygon
   class="fil0 str0"
   points="0.98,4.5 0.98,4.43 7.49,4.43 7.49,4.5 "
   id="polygon12" />
    <polygon
   class="fil0 str0"
   points="1.79,5.09 1.79,5.02 6.68,5.02 6.68,5.09 "
   id="polygon13" />
    <polygon
   class="fil0 str0"
   points="2.59,5.68 2.59,5.62 5.88,5.62 5.88,5.68 "
   id="polygon14" />
    <polygon
   class="fil0 str0"
   points="3.49,6.27 3.49,6.21 4.98,6.21 4.98,6.27 "
   id="polygon15" />
    <path
   class="fil0 str0"
   d="M 4.45,3.82 C 4.42,3.8 4.39,3.79 4.35,3.78 4.36,3.77 4.36,3.75 4.36,3.73 4.36,3.66 4.33,3.59 4.29,3.55 4.32,3.52 4.33,3.48 4.34,3.45 c 0,0 0,0 0,0 0.02,-0.01 0.05,-0.01 0.08,-0.01 0.11,0 0.2,0.08 0.2,0.19 0,0.1 -0.08,0.18 -0.17,0.19 z M 4.33,4.09 C 4.28,4.09 4.24,4.07 4.22,4.03 4.22,4.02 4.21,4 4.21,3.99 4.2,3.98 4.2,3.98 4.2,3.97 4.2,3.91 4.26,3.85 4.33,3.85 c 0.06,0 0.12,0.06 0.12,0.12 0,0.07 -0.06,0.12 -0.12,0.12 z M 3.99,4.25 C 3.9,4.25 3.82,4.18 3.82,4.08 3.82,3.99 3.9,3.92 3.99,3.92 c 0.09,0 0.17,0.07 0.17,0.16 0,0.1 -0.08,0.17 -0.17,0.17 z M 3.53,3.88 C 3.53,3.79 3.61,3.71 3.7,3.71 3.79,3.71 3.87,3.79 3.87,3.88 3.81,3.92 3.77,3.97 3.76,4.04 3.74,4.05 3.72,4.05 3.7,4.05 3.61,4.05 3.53,3.98 3.53,3.88 Z m 0.1,-0.35 c 0,-0.08 0.07,-0.15 0.15,-0.15 0.05,0 0.09,0.02 0.11,0.05 0,0 0,0 0,0 C 3.9,3.46 3.9,3.48 3.92,3.5 3.86,3.54 3.82,3.6 3.81,3.67 3.78,3.65 3.74,3.65 3.7,3.65 c 0,0 -0.01,0 -0.01,0 C 3.65,3.62 3.63,3.58 3.63,3.53 Z M 4.12,3.24 c 0.09,0 0.16,0.07 0.16,0.16 0,0.04 -0.02,0.07 -0.04,0.1 C 4.2,3.47 4.14,3.45 4.08,3.45 4.04,3.45 4.01,3.46 3.98,3.47 3.97,3.45 3.96,3.43 3.96,3.4 3.96,3.31 4.03,3.24 4.12,3.24 Z M 4.28,3.79 C 4.22,3.8 4.17,3.85 4.15,3.91 4.11,3.87 4.05,3.85 3.99,3.85 c -0.02,0 -0.04,0 -0.05,0 C 3.93,3.8 3.91,3.76 3.87,3.72 c 0.01,-0.11 0.1,-0.2 0.21,-0.2 0.12,0 0.21,0.09 0.21,0.21 0,0.02 0,0.04 -0.01,0.06 z M 4.69,3.63 C 4.69,3.48 4.57,3.37 4.42,3.37 4.39,3.37 4.37,3.37 4.34,3.38 4.33,3.26 4.24,3.17 4.12,3.17 4.01,3.17 3.92,3.25 3.9,3.35 3.86,3.33 3.82,3.31 3.78,3.31 c -0.12,0 -0.22,0.1 -0.22,0.22 0,0.05 0.02,0.1 0.05,0.13 -0.09,0.04 -0.15,0.12 -0.15,0.22 0,0.13 0.11,0.24 0.24,0.24 0.02,0 0.04,0 0.06,-0.01 0.01,0.12 0.11,0.21 0.23,0.21 0.11,0 0.21,-0.08 0.23,-0.19 0.03,0.02 0.07,0.03 0.11,0.03 0.1,0 0.19,-0.08 0.19,-0.19 C 4.52,3.94 4.51,3.91 4.5,3.88 4.61,3.85 4.69,3.75 4.69,3.63 Z"
   id="path15" />
    <path
   class="fil0 str0"
   d="M 4.45,3.82 C 4.42,3.8 4.39,3.79 4.35,3.78 4.36,3.77 4.36,3.75 4.36,3.73 4.36,3.66 4.33,3.59 4.29,3.55 4.32,3.52 4.33,3.48 4.34,3.45 c 0,0 0,0 0,0 0.02,-0.01 0.05,-0.01 0.08,-0.01 0.11,0 0.2,0.08 0.2,0.19 0,0.1 -0.08,0.18 -0.17,0.19 z M 4.33,4.09 C 4.28,4.09 4.24,4.07 4.22,4.03 4.22,4.02 4.21,4 4.21,3.99 4.2,3.98 4.2,3.98 4.2,3.97 4.2,3.91 4.26,3.85 4.33,3.85 c 0.06,0 0.12,0.06 0.12,0.12 0,0.07 -0.06,0.12 -0.12,0.12 z M 3.99,4.25 C 3.9,4.25 3.82,4.18 3.82,4.08 3.82,3.99 3.9,3.92 3.99,3.92 c 0.09,0 0.17,0.07 0.17,0.16 0,0.1 -0.08,0.17 -0.17,0.17 z M 3.53,3.88 C 3.53,3.79 3.61,3.71 3.7,3.71 3.79,3.71 3.87,3.79 3.87,3.88 3.81,3.92 3.77,3.97 3.76,4.04 3.74,4.05 3.72,4.05 3.7,4.05 3.61,4.05 3.53,3.98 3.53,3.88 Z m 0.1,-0.35 c 0,-0.08 0.07,-0.15 0.15,-0.15 0.05,0 0.09,0.02 0.11,0.05 0,0 0,0 0,0 C 3.9,3.46 3.9,3.48 3.92,3.5 3.86,3.54 3.82,3.6 3.81,3.67 3.78,3.65 3.74,3.65 3.7,3.65 c 0,0 -0.01,0 -0.01,0 C 3.65,3.62 3.63,3.58 3.63,3.53 Z M 4.12,3.24 c 0.09,0 0.16,0.07 0.16,0.16 0,0.04 -0.02,0.07 -0.04,0.1 C 4.2,3.47 4.14,3.45 4.08,3.45 4.04,3.45 4.01,3.46 3.98,3.47 3.97,3.45 3.96,3.43 3.96,3.4 3.96,3.31 4.03,3.24 4.12,3.24 Z M 4.28,3.79 C 4.22,3.8 4.17,3.85 4.15,3.91 4.11,3.87 4.05,3.85 3.99,3.85 c -0.02,0 -0.04,0 -0.05,0 C 3.93,3.8 3.91,3.76 3.87,3.72 c 0.01,-0.11 0.1,-0.2 0.21,-0.2 0.12,0 0.21,0.09 0.21,0.21 0,0.02 0,0.04 -0.01,0.06 z M 4.69,3.63 C 4.69,3.48 4.57,3.37 4.42,3.37 4.39,3.37 4.37,3.37 4.34,3.38 4.33,3.26 4.24,3.17 4.12,3.17 4.01,3.17 3.92,3.25 3.9,3.35 3.86,3.33 3.82,3.31 3.78,3.31 c -0.12,0 -0.22,0.1 -0.22,0.22 0,0.05 0.02,0.1 0.05,0.13 -0.09,0.04 -0.15,0.12 -0.15,0.22 0,0.13 0.11,0.24 0.24,0.24 0.02,0 0.04,0 0.06,-0.01 0.01,0.12 0.11,0.21 0.23,0.21 0.11,0 0.21,-0.08 0.23,-0.19 0.03,0.02 0.07,0.03 0.11,0.03 0.1,0 0.19,-0.08 0.19,-0.19 C 4.52,3.94 4.51,3.91 4.5,3.88 4.61,3.85 4.69,3.75 4.69,3.63 Z"
   id="path16" />
    <path
   class="fil0 str0"
   d="M 3.79,2.12 C 3.76,2.24 3.71,2.47 3.78,2.6 3.86,2.75 4.03,2.86 4.1,2.91 4.12,2.82 4.15,2.63 4.09,2.5 4.06,2.44 4,2.39 3.95,2.34 3.92,2.3 3.88,2.27 3.86,2.23 3.84,2.2 3.81,2.15 3.79,2.12 Z M 4.15,3.01 4.11,2.99 C 4.1,2.98 3.84,2.85 3.72,2.64 3.6,2.42 3.75,2.02 3.76,2.01 L 3.79,1.93 3.82,2.01 c 0,0 0.05,0.11 0.1,0.19 C 3.94,2.23 3.97,2.26 4,2.29 4.05,2.34 4.11,2.4 4.15,2.47 4.24,2.66 4.17,2.96 4.16,2.97 Z"
   id="path17" />
    <path
   class="fil0 str0"
   d="M 3.79,2.12 C 3.76,2.24 3.71,2.47 3.78,2.6 3.86,2.75 4.03,2.86 4.1,2.91 4.12,2.82 4.15,2.63 4.09,2.5 4.06,2.44 4,2.39 3.95,2.34 3.92,2.3 3.88,2.27 3.86,2.23 3.84,2.2 3.81,2.15 3.79,2.12 Z M 4.15,3.01 4.11,2.99 C 4.1,2.98 3.84,2.85 3.72,2.64 3.6,2.42 3.75,2.02 3.76,2.01 L 3.79,1.93 3.82,2.01 c 0,0 0.05,0.11 0.1,0.19 C 3.94,2.23 3.97,2.26 4,2.29 4.05,2.34 4.11,2.4 4.15,2.47 4.24,2.66 4.17,2.96 4.16,2.97 Z"
   id="path18" />
    <path
   class="fil0 str0"
   d="M 4.41,2.51 C 4.45,2.54 4.65,2.74 4.92,2.67 5.03,2.64 5.11,2.58 5.15,2.49 5.22,2.35 5.19,2.16 5.13,2.03 5.1,1.98 5.04,1.81 5.01,1.7 4.98,1.77 4.93,1.86 4.87,1.94 4.82,2.01 4.76,2.05 4.69,2.09 4.63,2.12 4.57,2.16 4.5,2.22 4.37,2.33 4.4,2.47 4.41,2.51 Z M 4.8,2.76 C 4.54,2.76 4.36,2.56 4.36,2.55 L 4.35,2.54 v 0 c 0,0 -0.07,-0.22 0.11,-0.38 C 4.53,2.1 4.6,2.06 4.65,2.03 4.72,1.99 4.77,1.96 4.81,1.9 4.91,1.76 4.98,1.6 4.98,1.6 L 5.02,1.51 5.05,1.6 c 0,0 0.11,0.33 0.14,0.41 C 5.25,2.14 5.3,2.35 5.22,2.52 5.17,2.63 5.07,2.7 4.94,2.74 4.89,2.75 4.85,2.76 4.8,2.76 Z"
   id="path19" />
    <path
   class="fil0 str0"
   d="M 4.41,2.51 C 4.45,2.54 4.65,2.74 4.92,2.67 5.03,2.64 5.11,2.58 5.15,2.49 5.22,2.35 5.19,2.16 5.13,2.03 5.1,1.98 5.04,1.81 5.01,1.7 4.98,1.77 4.93,1.86 4.87,1.94 4.82,2.01 4.76,2.05 4.69,2.09 4.63,2.12 4.57,2.16 4.5,2.22 4.37,2.33 4.4,2.47 4.41,2.51 Z M 4.8,2.76 C 4.54,2.76 4.36,2.56 4.36,2.55 L 4.35,2.54 v 0 c 0,0 -0.07,-0.22 0.11,-0.38 C 4.53,2.1 4.6,2.06 4.65,2.03 4.72,1.99 4.77,1.96 4.81,1.9 4.91,1.76 4.98,1.6 4.98,1.6 L 5.02,1.51 5.05,1.6 c 0,0 0.11,0.33 0.14,0.41 C 5.25,2.14 5.3,2.35 5.22,2.52 5.17,2.63 5.07,2.7 4.94,2.74 4.89,2.75 4.85,2.76 4.8,2.76 Z"
   id="path20" />
    <path
   class="fil0 str0"
   d="M 4.19,2.97 C 4.25,3.02 4.39,3.11 4.54,3.13 4.67,3.14 4.84,3.03 4.93,2.96 4.89,2.96 4.85,2.95 4.81,2.95 4.77,2.94 4.74,2.92 4.7,2.91 4.64,2.88 4.58,2.86 4.52,2.85 4.4,2.85 4.26,2.93 4.19,2.97 Z m 0.37,0.22 c -0.01,0 -0.02,0 -0.03,0 C 4.32,3.17 4.13,3 4.12,2.99 L 4.1,2.97 4.13,2.94 C 4.14,2.94 4.34,2.78 4.52,2.79 4.6,2.8 4.66,2.83 4.72,2.85 4.76,2.87 4.79,2.88 4.82,2.89 4.9,2.9 5,2.9 5,2.9 H 5.08 L 5.02,2.96 C 5.01,2.97 4.77,3.19 4.56,3.19 Z"
   id="path21" />
    <path
   class="fil0 str0"
   d="M 4.19,2.97 C 4.25,3.02 4.39,3.11 4.54,3.13 4.67,3.14 4.84,3.03 4.93,2.96 4.89,2.96 4.85,2.95 4.81,2.95 4.77,2.94 4.74,2.92 4.7,2.91 4.64,2.88 4.58,2.86 4.52,2.85 4.4,2.85 4.26,2.93 4.19,2.97 Z m 0.37,0.22 c -0.01,0 -0.02,0 -0.03,0 C 4.32,3.17 4.13,3 4.12,2.99 L 4.1,2.97 4.13,2.94 C 4.14,2.94 4.34,2.78 4.52,2.79 4.6,2.8 4.66,2.83 4.72,2.85 4.76,2.87 4.79,2.88 4.82,2.89 4.9,2.9 5,2.9 5,2.9 H 5.08 L 5.02,2.96 C 5.01,2.97 4.77,3.19 4.56,3.19 Z"
   id="path22" />
    <path
   class="fil0 str0"
   d="M 4.36,2.5 C 4.48,2.44 4.6,2.42 4.72,2.47 4.88,2.5 4.94,2.29 4.96,2.17 4.95,2.3 4.89,2.52 4.71,2.5 4.61,2.47 4.49,2.5 4.4,2.56 Z"
   id="path23" />
    <path
   class="fil0 str0"
   d="M 4.36,2.5 C 4.48,2.44 4.6,2.42 4.72,2.47 4.88,2.5 4.94,2.29 4.96,2.17 4.95,2.3 4.89,2.52 4.71,2.5 4.61,2.47 4.49,2.5 4.4,2.56 Z"
   id="path24" />
    <path
   class="fil0 str0"
   d="M 3.96,0.96 3.95,0.91 c 0.19,-0.02 0.38,-0.02 0.57,0 L 4.51,0.96 C 4.33,0.95 4.14,0.95 3.96,0.96 Z M 5.33,1.14 C 5.15,1.08 4.97,1.03 4.79,1 L 4.8,0.94 C 4.99,0.98 5.17,1.03 5.35,1.09 Z M 3.14,1.14 3.12,1.09 C 3.3,1.03 3.48,0.98 3.67,0.95 L 3.68,1 C 3.5,1.03 3.31,1.08 3.14,1.14 Z M 6.07,1.53 C 5.92,1.42 5.75,1.33 5.59,1.25 L 5.61,1.2 C 5.78,1.28 5.95,1.38 6.1,1.48 Z M 2.4,1.53 2.37,1.49 C 2.52,1.38 2.69,1.28 2.86,1.2 L 2.88,1.25 C 2.71,1.33 2.55,1.42 2.4,1.53 Z M 6.68,2.09 C 6.56,1.95 6.43,1.82 6.29,1.7 L 6.33,1.66 c 0.14,0.12 0.28,0.25 0.4,0.4 z M 1.78,2.1 1.74,2.06 C 1.86,1.92 2,1.78 2.14,1.66 L 2.18,1.7 C 2.04,1.82 1.9,1.95 1.78,2.1 Z M 7.13,2.8 C 7.05,2.63 6.96,2.47 6.85,2.32 L 6.9,2.28 C 7.01,2.44 7.1,2.6 7.18,2.78 Z M 1.34,2.8 1.29,2.78 C 1.37,2.61 1.46,2.44 1.57,2.29 L 1.61,2.32 C 1.51,2.47 1.41,2.63 1.34,2.8 Z M 7.38,3.6 C 7.35,3.41 7.3,3.23 7.24,3.06 L 7.29,3.04 C 7.36,3.22 7.41,3.4 7.44,3.59 Z M 1.09,3.6 1.03,3.59 C 1.06,3.4 1.11,3.22 1.18,3.04 L 1.23,3.06 C 1.17,3.23 1.12,3.42 1.09,3.6 Z"
   id="path25" />
    <path
   class="fil0 str0"
   d="M 3.96,0.96 3.95,0.91 c 0.19,-0.02 0.38,-0.02 0.57,0 L 4.51,0.96 C 4.33,0.95 4.14,0.95 3.96,0.96 Z M 5.33,1.14 C 5.15,1.08 4.97,1.03 4.79,1 L 4.8,0.94 C 4.99,0.98 5.17,1.03 5.35,1.09 Z M 3.14,1.14 3.12,1.09 C 3.3,1.03 3.48,0.98 3.67,0.95 L 3.68,1 C 3.5,1.03 3.31,1.08 3.14,1.14 Z M 6.07,1.53 C 5.92,1.42 5.75,1.33 5.59,1.25 L 5.61,1.2 C 5.78,1.28 5.95,1.38 6.1,1.48 Z M 2.4,1.53 2.37,1.49 C 2.52,1.38 2.69,1.28 2.86,1.2 L 2.88,1.25 C 2.71,1.33 2.55,1.42 2.4,1.53 Z M 6.68,2.09 C 6.56,1.95 6.43,1.82 6.29,1.7 L 6.33,1.66 c 0.14,0.12 0.28,0.25 0.4,0.4 z M 1.78,2.1 1.74,2.06 C 1.86,1.92 2,1.78 2.14,1.66 L 2.18,1.7 C 2.04,1.82 1.9,1.95 1.78,2.1 Z M 7.13,2.8 C 7.05,2.63 6.96,2.47 6.85,2.32 L 6.9,2.28 C 7.01,2.44 7.1,2.6 7.18,2.78 Z M 1.34,2.8 1.29,2.78 C 1.37,2.61 1.46,2.44 1.57,2.29 L 1.61,2.32 C 1.51,2.47 1.41,2.63 1.34,2.8 Z M 7.38,3.6 C 7.35,3.41 7.3,3.23 7.24,3.06 L 7.29,3.04 C 7.36,3.22 7.41,3.4 7.44,3.59 Z M 1.09,3.6 1.03,3.59 C 1.06,3.4 1.11,3.22 1.18,3.04 L 1.23,3.06 C 1.17,3.23 1.12,3.42 1.09,3.6 Z"
   id="path26" />
    <path
   class="fil0 str0"
   d="M 7.47,4.8 C 7.44,4.73 7.4,4.72 7.37,4.72 7.18,4.72 7.11,5.09 7.07,5.36 7.06,5.44 7.05,5.5 7.03,5.54 6.99,5.71 6.85,5.86 6.63,5.99 L 6.66,6.05 C 6.9,5.91 7.05,5.75 7.1,5.56 7.11,5.52 7.12,5.45 7.14,5.38 7.17,5.16 7.23,4.79 7.37,4.79 7.39,4.79 7.4,4.8 7.41,4.83 7.52,5.05 7.4,5.89 7.13,6.25 6.88,6.58 6.6,6.75 6.28,6.95 5.89,7.18 5.48,7.37 5.05,7.51 L 5.07,7.57 C 5.51,7.44 5.93,7.25 6.31,7.01 6.64,6.81 6.92,6.63 7.18,6.3 7.48,5.91 7.59,5.04 7.47,4.8 Z"
   id="path27" />
    <path
   class="fil0 str0"
   d="M 7.47,4.8 C 7.44,4.73 7.4,4.72 7.37,4.72 7.18,4.72 7.11,5.09 7.07,5.36 7.06,5.44 7.05,5.5 7.03,5.54 6.99,5.71 6.85,5.86 6.63,5.99 L 6.66,6.05 C 6.9,5.91 7.05,5.75 7.1,5.56 7.11,5.52 7.12,5.45 7.14,5.38 7.17,5.16 7.23,4.79 7.37,4.79 7.39,4.79 7.4,4.8 7.41,4.83 7.52,5.05 7.4,5.89 7.13,6.25 6.88,6.58 6.6,6.75 6.28,6.95 5.89,7.18 5.48,7.37 5.05,7.51 L 5.07,7.57 C 5.51,7.44 5.93,7.25 6.31,7.01 6.64,6.81 6.92,6.63 7.18,6.3 7.48,5.91 7.59,5.04 7.47,4.8 Z"
   id="path28" />
    <path
   class="fil0 str0"
   d="M 5.12,6.63 C 5.25,6.54 5.4,6.45 5.52,6.37 5.6,6.32 5.67,6.27 5.73,6.23 5.89,6.12 6.02,6.01 6.11,5.94 6.24,5.82 6.3,5.77 6.35,5.8 6.37,5.81 6.39,5.84 6.39,5.89 6.4,5.98 6.34,6.11 6.25,6.17 6.12,6.27 5.86,6.5 5.86,6.5 L 5.9,6.55 c 0,0 0.26,-0.22 0.4,-0.33 C 6.4,6.15 6.47,6 6.46,5.88 6.46,5.82 6.43,5.77 6.38,5.74 6.3,5.68 6.21,5.76 6.06,5.88 5.97,5.96 5.85,6.06 5.69,6.18 5.63,6.22 5.56,6.26 5.48,6.31 5.33,6.41 5.16,6.51 5.01,6.63 Z"
   id="path29" />
    <path
   class="fil0 str0"
   d="M 5.12,6.63 C 5.25,6.54 5.4,6.45 5.52,6.37 5.6,6.32 5.67,6.27 5.73,6.23 5.89,6.12 6.02,6.01 6.11,5.94 6.24,5.82 6.3,5.77 6.35,5.8 6.37,5.81 6.39,5.84 6.39,5.89 6.4,5.98 6.34,6.11 6.25,6.17 6.12,6.27 5.86,6.5 5.86,6.5 L 5.9,6.55 c 0,0 0.26,-0.22 0.4,-0.33 C 6.4,6.15 6.47,6 6.46,5.88 6.46,5.82 6.43,5.77 6.38,5.74 6.3,5.68 6.21,5.76 6.06,5.88 5.97,5.96 5.85,6.06 5.69,6.18 5.63,6.22 5.56,6.26 5.48,6.31 5.33,6.41 5.16,6.51 5.01,6.63 Z"
   id="path30" />
    <path
   class="fil0 str0"
   d="M 2.18,6.22 C 2.31,6.33 2.57,6.55 2.57,6.55 L 2.62,6.5 C 2.61,6.5 2.35,6.27 2.22,6.17 2.14,6.11 2.08,5.98 2.08,5.89 2.08,5.84 2.1,5.81 2.13,5.8 2.17,5.77 2.23,5.82 2.37,5.94 2.45,6.01 2.58,6.12 2.74,6.23 2.8,6.27 2.87,6.32 2.96,6.37 3.08,6.45 3.22,6.54 3.35,6.63 H 3.47 C 3.31,6.51 3.14,6.41 2.99,6.31 2.91,6.26 2.84,6.22 2.78,6.18 2.62,6.06 2.5,5.96 2.41,5.88 2.26,5.76 2.18,5.68 2.09,5.74 2.04,5.77 2.01,5.82 2.01,5.88 2.01,6 2.08,6.15 2.18,6.22 Z"
   id="path31" />
    <path
   class="fil0 str0"
   d="M 2.18,6.22 C 2.31,6.33 2.57,6.55 2.57,6.55 L 2.62,6.5 C 2.61,6.5 2.35,6.27 2.22,6.17 2.14,6.11 2.08,5.98 2.08,5.89 2.08,5.84 2.1,5.81 2.13,5.8 2.17,5.77 2.23,5.82 2.37,5.94 2.45,6.01 2.58,6.12 2.74,6.23 2.8,6.27 2.87,6.32 2.96,6.37 3.08,6.45 3.22,6.54 3.35,6.63 H 3.47 C 3.31,6.51 3.14,6.41 2.99,6.31 2.91,6.26 2.84,6.22 2.78,6.18 2.62,6.06 2.5,5.96 2.41,5.88 2.26,5.76 2.18,5.68 2.09,5.74 2.04,5.77 2.01,5.82 2.01,5.88 2.01,6 2.08,6.15 2.18,6.22 Z"
   id="path32" />
    <path
   class="fil0 str0"
   d="M 1.34,6.25 C 1.07,5.89 0.95,5.05 1.06,4.83 1.07,4.8 1.08,4.79 1.1,4.79 c 0.14,0 0.2,0.37 0.23,0.59 0.02,0.07 0.03,0.14 0.04,0.18 0.05,0.19 0.2,0.35 0.44,0.49 L 1.85,5.99 C 1.62,5.86 1.48,5.71 1.44,5.54 1.43,5.5 1.41,5.44 1.4,5.36 1.36,5.09 1.29,4.72 1.1,4.72 1.07,4.72 1.03,4.73 1,4.8 0.88,5.04 0.99,5.91 1.29,6.3 1.55,6.63 1.83,6.81 2.16,7.01 2.55,7.25 2.96,7.44 3.4,7.57 L 3.42,7.51 C 2.99,7.37 2.58,7.18 2.19,6.95 1.87,6.75 1.59,6.58 1.34,6.25 Z"
   id="path33" />
    <path
   class="fil0 str0"
   d="M 1.34,6.25 C 1.07,5.89 0.95,5.05 1.06,4.83 1.07,4.8 1.08,4.79 1.1,4.79 c 0.14,0 0.2,0.37 0.23,0.59 0.02,0.07 0.03,0.14 0.04,0.18 0.05,0.19 0.2,0.35 0.44,0.49 L 1.85,5.99 C 1.62,5.86 1.48,5.71 1.44,5.54 1.43,5.5 1.41,5.44 1.4,5.36 1.36,5.09 1.29,4.72 1.1,4.72 1.07,4.72 1.03,4.73 1,4.8 0.88,5.04 0.99,5.91 1.29,6.3 1.55,6.63 1.83,6.81 2.16,7.01 2.55,7.25 2.96,7.44 3.4,7.57 L 3.42,7.51 C 2.99,7.37 2.58,7.18 2.19,6.95 1.87,6.75 1.59,6.58 1.34,6.25 Z"
   id="path34" />
    <path
   class="fil0 str0"
   d="M 4.24,0.1 C 1.96,0.1 0.1,1.96 0.1,4.24 0.1,6.51 1.96,8.37 4.24,8.37 6.51,8.37 8.37,6.51 8.37,4.24 8.37,1.96 6.51,0.1 4.24,0.1 Z m 0,8.34 c -2.33,0 -4.21,-1.88 -4.21,-4.2 0,-2.33 1.88,-4.21 4.21,-4.21 2.32,0 4.2,1.88 4.2,4.21 0,2.32 -1.88,4.2 -4.2,4.2 z"
   id="path35" />
    <path
   class="fil0 str0"
   d="M 4.24,0.1 C 1.96,0.1 0.1,1.96 0.1,4.24 0.1,6.51 1.96,8.37 4.24,8.37 6.51,8.37 8.37,6.51 8.37,4.24 8.37,1.96 6.51,0.1 4.24,0.1 Z m 0,8.34 c -2.33,0 -4.21,-1.88 -4.21,-4.2 0,-2.33 1.88,-4.21 4.21,-4.21 2.32,0 4.2,1.88 4.2,4.21 0,2.32 -1.88,4.2 -4.2,4.2 z"
   id="path36" />
   </g>
   
  </g>
 </g>
</svg>
